<?xml version="1.0" encoding="UTF-8" standalone="no"?>
<svg
   xmlns:dc="http://purl.org/dc/elements/1.1/"
   xmlns:cc="http://creativecommons.org/ns#"
   xmlns:rdf="http://www.w3.org/1999/02/22-rdf-syntax-ns#"
   xmlns:svg="http://www.w3.org/2000/svg"
   xmlns="http://www.w3.org/2000/svg"
   xmlns:sodipodi="http://sodipodi.sourceforge.net/DTD/sodipodi-0.dtd"
   xmlns:inkscape="http://www.inkscape.org/namespaces/inkscape"
   id="svg8"
   version="1.1"
   viewBox="0 0 173.377 173.377"
   height="173.377mm"
   width="173.377mm"
   sodipodi:docname="logo.svg"
   inkscape:export-filename="/home/sam/Workspace/CPCC/website/cpcc/frontend/src/assets/images/logo.png"
   inkscape:export-xdpi="96"
   inkscape:export-ydpi="96"
   inkscape:version="0.92.2 (unknown)">
  <sodipodi:namedview
     pagecolor="#ffffff"
     bordercolor="#666666"
     borderopacity="1"
     objecttolerance="10"
     gridtolerance="10"
     guidetolerance="10"
     inkscape:pageopacity="0"
     inkscape:pageshadow="2"
     inkscape:window-width="1920"
     inkscape:window-height="1029"
     id="namedview7"
     showgrid="false"
     inkscape:zoom="0.36014966"
     inkscape:cx="327.64157"
     inkscape:cy="327.64157"
     inkscape:window-x="0"
     inkscape:window-y="22"
     inkscape:window-maximized="1"
     inkscape:current-layer="svg8" />
  <defs
     id="defs2" />
  <metadata
     id="metadata5">
    <rdf:RDF>
      <cc:Work
         rdf:about="">
        <dc:format>image/svg+xml</dc:format>
        <dc:type
           rdf:resource="http://purl.org/dc/dcmitype/StillImage" />
        <dc:title />
      </cc:Work>
    </rdf:RDF>
  </metadata>
  <g
     transform="translate(0,-123.623)"
     id="layer1">
    <path
       id="path21"
       d="M 84.099798,296.99128 C 57.537848,296.15308 33.252408,283.52722 17.258738,262.241 7.6195474,249.41206 1.7493074,234.09427 0.3251074,218.05445 c -0.43348,-4.88192 -0.43348,-10.61209 0,-15.494 1.11598,-12.56863 4.965,-24.72718 11.2912106,-35.66745 6.11015,-10.56665 14.60536,-19.92986 24.56214,-27.07176 17.83742,-12.79463 39.70259,-18.30639 61.595,-15.52686 15.855922,2.01312 30.860152,8.41594 43.366012,18.50577 4.25119,3.4299 9.03264,8.1609 12.47864,12.34696 9.80324,11.90864 16.17231,25.93052 18.65305,41.06583 0.81583,4.97743 1.10584,8.67387 1.10584,14.09451 0,3.70624 -0.0658,5.29061 -0.33922,8.17033 -1.75773,18.51115 -9.20733,35.57694 -21.65308,49.60363 -1.49359,1.68331 -5.62734,5.78608 -7.34091,7.2859 -8.45058,7.39642 -17.67148,12.84196 -28.10934,16.60039 -10.01761,3.6071 -21.133792,5.36127 -31.834652,5.02358 z m 7.112,-3.50289 c 14.628912,-0.7644 28.759592,-5.38883 41.063322,-13.43844 4.91353,-3.21464 8.97746,-6.53088 13.29804,-10.85146 3.2426,-3.24261 5.4091,-5.73912 8.01341,-9.23403 9.1051,-12.21882 14.66807,-26.71775 16.06386,-41.86768 0.46298,-5.02504 0.46298,-10.55362 0,-15.57867 -2.18573,-23.72395 -14.55804,-45.44555 -33.93209,-59.57332 -12.97246,-9.45965 -28.1495,-14.87018 -44.379542,-15.82105 -1.85145,-0.10847 -7.45246,-0.10884 -9.31334,-5.9e-4 -17.43654,1.01404 -33.70772,7.23258 -47.27712,18.06839 -11.75109,9.3838 -20.78432,21.79023 -26.0273306,35.74648 -3.56737,9.49591 -5.30818,19.12758 -5.30818,29.36943 0,10.24789 1.73871,19.86792 5.30818,29.36943 5.2989306,14.1051 14.5555806,26.73528 26.4489006,36.08806 16.00477,12.58598 35.62324,18.79038 56.04189,17.72345 z m -4.40228,-2.03819 c 0,-0.0642 -0.19188,-3.50288 -0.42687,-7.64149 -0.23498,-4.13862 -0.40401,-7.54798 -0.37563,-7.57637 0.0549,-0.0549 7.54239,-0.50487 8.55837,-0.51429 l 0.60194,-0.006 0.0754,1.43962 0.0754,1.43962 -0.254,0.0381 c -0.1397,0.0209 -1.4732,0.10138 -2.96333,0.17876 -1.49014,0.0774 -2.72994,0.1649 -2.75511,0.19448 -0.0252,0.0296 -0.01,0.74912 0.0343,1.59896 l 0.0801,1.54517 0.21966,-0.003 c 0.12082,-0.002 1.41982,-0.0742 2.88667,-0.16119 1.46685,-0.087 2.68259,-0.14307 2.70164,-0.12463 0.0575,0.0557 0.19908,2.83499 0.14706,2.88702 -0.0266,0.0266 -1.3151,0.12129 -2.86342,0.21053 -1.54833,0.0892 -2.83263,0.17974 -2.85401,0.20113 -0.0479,0.0478 0.11079,3.15078 0.16373,3.20247 0.0209,0.0204 1.2572,-0.0345 2.74734,-0.12205 1.49013,-0.0875 2.86751,-0.16016 3.06085,-0.16139 l 0.35152,-0.002 0.0487,0.48684 c 0.0268,0.26775 0.0727,0.92649 0.10202,1.46386 l 0.0533,0.97702 -4.30587,0.23473 c -2.36824,0.1291 -4.48685,0.25632 -4.70804,0.28272 -0.30863,0.0368 -0.40208,0.0208 -0.40178,-0.0688 z m -11.79203,-0.62572 c -1.775,-0.29842 -3.17381,-0.97433 -4.36845,-2.11084 -1.02127,-0.97156 -1.61393,-1.89069 -2.05154,-3.18162 -0.23877,-0.70436 -0.27685,-0.9424 -0.31121,-1.94556 -0.0456,-1.33162 0.0542,-2.09983 0.41225,-3.17426 0.39954,-1.1988 0.84866,-1.91458 1.81225,-2.88831 1.21307,-1.22582 2.38245,-1.8658 4.01195,-2.19568 1.05611,-0.2138 2.97131,-0.13836 4.11605,0.16215 2.38916,0.62718 4.22924,2.09206 5.30037,4.21959 0.58397,1.15993 0.71148,1.76702 0.70749,3.36851 -0.004,1.57617 -0.1475,2.30725 -0.67907,3.45777 -1.01595,2.19889 -3.23333,3.84763 -5.76944,4.28988 -0.86773,0.15132 -2.27519,0.1506 -3.18065,-0.002 z m 3.1029,-3.12042 c 0.75303,-0.23913 1.69499,-0.84344 2.16979,-1.39202 0.7172,-0.82866 1.18031,-2.12842 1.18347,-3.32163 0.005,-2.04972 -1.52932,-3.96191 -3.63919,-4.53411 -0.83967,-0.22772 -2.24581,-0.21396 -3.02052,0.0296 -0.76878,0.24166 -1.77183,0.90747 -2.2355,1.48389 -0.68958,0.85729 -1.09398,2.06451 -1.09398,3.26579 0,2.13356 1.53717,4.01046 3.71825,4.54003 0.26001,0.0631 0.88087,0.11796 1.37969,0.12184 0.73326,0.006 1.02779,-0.0313 1.53799,-0.19335 z m -15.47206,0.40962 c -0.64559,-0.24674 -1.20109,-0.48048 -1.23446,-0.51941 -0.0334,-0.0389 -1.06655,-2.82233 -2.29598,-6.18529 -1.22943,-3.36297 -2.26232,-6.08712 -2.29531,-6.05367 -0.033,0.0334 -0.8277,2.08012 -1.766,4.54815 -0.93831,2.46803 -1.73434,4.51718 -1.76896,4.55366 -0.0825,0.0869 -2.8005,-0.94872 -2.8005,-1.06712 0,-0.11981 5.33505,-14.13521 5.41283,-14.21971 0.033,-0.0359 0.57168,0.12826 1.19708,0.36469 l 1.13709,0.42987 2.24367,6.138 c 1.23402,3.3759 2.27017,6.18249 2.30256,6.23685 0.0324,0.0544 0.0734,0.0809 0.091,0.059 0.0177,-0.0219 0.80874,-2.08884 1.75794,-4.59313 0.9492,-2.50429 1.74782,-4.58884 1.7747,-4.63234 0.0728,-0.11784 2.83896,0.9692 2.82703,1.11097 -0.007,0.0827 -3.97199,10.55121 -5.35554,14.1397 -0.0463,0.12013 -0.20851,0.0791 -1.22716,-0.31019 z m 45.352752,-0.58824 c -2.19147,-0.56642 -4.02304,-2.07698 -5.0168,-4.13751 -0.62495,-1.29581 -0.80997,-2.12129 -0.79998,-3.56914 0.007,-1.03056 0.0381,-1.28415 0.23708,-1.94212 0.47338,-1.56501 1.43268,-3.04391 2.6106,-4.02461 0.72902,-0.60696 2.33911,-1.43346 3.30212,-1.69508 1.32248,-0.35928 3.11053,-0.50063 4.66765,-0.36901 l 0.64885,0.0549 0.54015,1.65965 c 0.29709,0.91281 0.52988,1.67086 0.51732,1.68454 -0.0126,0.0137 -0.41605,-0.0553 -0.89665,-0.15318 -2.9282,-0.59673 -5.39637,-0.084 -6.95339,1.44456 -1.13974,1.11887 -1.65095,2.5461 -1.42211,3.97034 0.31958,1.98896 1.43896,3.37717 3.2172,3.98976 0.71375,0.24588 1.97156,0.26509 2.83633,0.0433 1.69336,-0.43428 3.20321,-1.46072 4.58166,-3.11471 l 0.61482,-0.73773 0.57677,1.74213 0.57675,1.74212 -0.59266,0.55256 c -1.17596,1.09637 -2.5842,1.92581 -4.2601,2.50914 -1.75148,0.60965 -3.50511,0.73282 -4.98561,0.35015 z m 9.7081,-9.46348 c -1.69081,-3.27131 -3.27879,-6.33529 -3.52885,-6.80885 l -0.45466,-0.86102 1.40597,-0.73536 c 0.77327,-0.40444 1.41937,-0.72183 1.43576,-0.70531 0.0164,0.0165 1.29562,2.47796 2.84274,5.46987 1.54711,2.99191 2.85133,5.43984 2.89826,5.43984 0.0469,0 1.29624,-0.62774 2.77625,-1.39497 1.48002,-0.76723 2.7343,-1.40541 2.78731,-1.41817 0.0908,-0.0219 1.4945,2.53269 1.42814,2.59904 -0.0636,0.0636 -8.39486,4.36276 -8.45454,4.36276 -0.0342,0 -1.44556,-2.67652 -3.13638,-5.94783 z m -70.696952,3.61289 -1.40057,-0.8931 0.321,-2.13247 c 0.17655,-1.17288 0.3115,-2.21591 0.2999,-2.31787 -0.0161,-0.14149 -0.53978,-0.51814 -2.21144,-1.59058 -2.0829,-1.33626 -2.19967,-1.39907 -2.38061,-1.28051 -0.10465,0.0686 -0.94645,0.64267 -1.87066,1.27578 -0.92422,0.63311 -1.72251,1.14037 -1.77397,1.12724 -0.0515,-0.0131 -0.6894,-0.40488 -1.41763,-0.87055 -1.02333,-0.65437 -1.30082,-0.86926 -1.22176,-0.94615 0.19615,-0.19075 13.69145,-9.34085 13.77664,-9.34085 0.0472,0 0.4851,0.25211 0.97306,0.56024 0.7476,0.47209 0.88088,0.58865 0.84712,0.74083 -0.022,0.0993 -0.59409,3.8382 -1.27122,8.3086 -0.67713,4.4704 -1.23974,8.15601 -1.25023,8.19024 -0.0105,0.0342 -0.64932,-0.33966 -1.41963,-0.83085 z m -0.21034,-9.03156 c 0.14354,-0.82688 0.45972,-2.97857 0.4405,-2.99778 -0.0469,-0.0469 -2.61977,1.79535 -2.61991,1.87595 -1.7e-4,0.0776 1.93502,1.37654 2.07197,1.39079 0.0328,0.003 0.0812,-0.11762 0.10744,-0.26896 z m 83.967602,3.54391 c -0.24601,-0.0622 -0.7413,-0.25839 -1.10066,-0.436 -1.0746,-0.53109 -1.85878,-1.40314 -5.08284,-5.65246 -1.54765,-2.03979 -2.79083,-3.74605 -2.76264,-3.79166 0.1119,-0.18106 2.41756,-1.85964 2.49155,-1.81392 0.0435,0.0269 1.32848,1.69449 2.8555,3.70577 2.83241,3.73066 3.53249,4.55211 4.13105,4.84716 0.46366,0.22854 1.52788,0.23197 2.11667,0.007 1.52322,-0.58249 2.7836,-1.99325 2.89568,-3.24116 0.0929,-1.03422 0.006,-1.17695 -3.69996,-6.04774 -1.49023,-1.95884 -2.68738,-3.5973 -2.66036,-3.64103 0.073,-0.1182 2.38942,-1.85262 2.46682,-1.84708 0.11548,0.008 5.63363,7.33448 6.09958,8.09816 0.67479,1.10597 0.90022,1.87549 0.90022,3.07308 0,0.82846 -0.0337,1.07494 -0.22572,1.65278 -0.41104,1.23674 -1.15152,2.27543 -2.31524,3.24766 -0.93434,0.7806 -1.82021,1.29974 -2.8072,1.64506 -0.64501,0.22568 -0.87245,0.2615 -1.79682,0.28303 -0.68258,0.0159 -1.21714,-0.0155 -1.50563,-0.0885 z m -96.912702,-4.54242 c -2.65582,-0.9048 -5.19215,-3.07489 -6.27939,-5.37265 -0.50499,-1.06724 -0.63395,-1.60874 -0.6872,-2.88556 -0.0356,-0.85451 -0.0132,-1.27042 0.0981,-1.82034 0.30677,-1.51537 0.95526,-2.75352 2.02767,-3.87141 1.09913,-1.14576 2.07212,-1.75492 3.49671,-2.18919 0.66968,-0.20415 0.88137,-0.22763 2.09944,-0.23287 1.62603,-0.007 2.31638,0.14412 3.64067,0.79701 2.08425,1.02756 3.6684,2.83494 4.92186,5.61545 l 0.37496,0.83178 -1.19784,1.24256 c -0.65882,0.68341 -1.22195,1.25151 -1.25142,1.26245 -0.0295,0.0109 -0.17965,-0.40738 -0.33375,-0.92959 -1.12253,-3.80382 -3.73104,-6.05326 -6.56278,-5.65941 -0.34851,0.0485 -0.83334,0.16684 -1.07739,0.26303 -1.30534,0.51452 -2.45828,1.74766 -2.92746,3.13109 -0.2428,0.71591 -0.20817,2.06227 0.0724,2.81445 0.308,0.82575 0.70543,1.43756 1.36636,2.10339 1.20815,1.21711 2.79104,2.01349 4.71007,2.3697 0.30269,0.0562 0.6047,0.13069 0.67115,0.16555 0.0888,0.0466 -0.21352,0.40181 -1.143,1.34265 l -1.26381,1.27925 z m 48.76133,-1.2774 c -18.5271,-1.30683 -35.22901,-10.88106 -45.69318,-26.19326 -7.94952,-11.6325 -11.54266,-25.88004 -10.09969,-40.04734 2.06859,-20.30977 14.38963,-38.2389 32.63654,-47.49146 6.8971,-3.49736 13.87799,-5.5109 21.80167,-6.28842 2.19942,-0.21581 8.7539,-0.21624 10.87967,-6.7e-4 9.886462,1.0024 18.363842,3.86757 26.567502,8.97922 3.72745,2.32256 7.09276,5.01412 10.44053,8.35029 2.02634,2.01933 3.11604,3.22813 4.67764,5.18886 12.20641,15.32642 16.14916,35.62394 10.59534,54.54556 -2.14733,7.31584 -5.79029,14.30956 -10.59501,20.34021 -2.867,3.59853 -6.62414,7.32174 -10.14768,10.05605 -9.60389,7.45275 -20.88496,11.74313 -33.047892,12.56865 -1.50354,0.10204 -6.52817,0.0973 -8.01544,-0.008 z m 6.60401,-2.19196 c 10.558824,-0.49084 20.408122,-3.65272 29.125322,-9.34997 5.64558,-3.68973 10.67871,-8.41031 14.71375,-13.8 6.13162,-8.19015 9.92306,-17.62323 11.14671,-27.733 0.30636,-2.53111 0.38034,-3.88982 0.38034,-6.985 0,-3.89105 -0.20034,-6.35481 -0.80208,-9.86367 -2.37557,-13.85246 -9.81884,-26.47325 -20.81281,-35.29012 -13.77276,-11.0454 -31.609582,-15.20821 -48.838032,-11.39797 -14.57549,3.22351 -27.36527,12.01509 -35.71732,24.55177 -1.83538,2.75498 -4.05736,6.90696 -5.24181,9.79485 -2.22144,5.41622 -3.54732,10.76905 -4.16847,16.8288 -0.21832,2.12991 -0.21907,8.61006 -0.001,10.75267 0.48104,4.73157 1.42178,9.13151 2.84208,13.29268 3.56606,10.44777 10.03245,19.6343 18.72526,26.60221 10.89019,8.72926 24.7398,13.2433 38.64831,12.59675 z m -4.572,-1.78175 c -11.53856,-0.40126 -22.60138,-4.3389 -31.82599,-11.328 -0.95398,-0.72279 -1.14625,-0.90262 -1.016,-0.95027 0.0884,-0.0323 0.73215,-0.16172 1.43065,-0.28753 0.6985,-0.12581 1.5748,-0.28893 1.94733,-0.3625 0.89229,-0.17619 4.55023,-0.19798 5.715,-0.034 1.38708,0.19523 2.78055,0.51986 3.75728,0.87531 3.71423,1.35167 4.43453,1.46142 6.57612,1.00203 0.93943,-0.20151 3.15648,-0.94304 3.81805,-1.277 0.5066,-0.25573 1.27588,-0.89644 1.43636,-1.19629 0.0872,-0.16297 -0.34022,-0.0237 -2.46447,0.80301 -1.63572,0.63659 -2.3011,0.77387 -3.76767,0.77736 -1.45834,0.003 -1.58797,-0.0242 -3.70658,-0.792 -2.39148,-0.86667 -3.89206,-1.19918 -6.18762,-1.37111 -1.56655,-0.11734 -3.19789,-0.0158 -4.89818,0.30481 -1.72208,0.32475 -3.15302,0.53271 -4.10727,0.59692 l -0.86564,0.0583 -0.86901,-0.75159 c -2.04298,-1.76693 -4.95089,-4.82206 -6.81918,-7.16441 -0.89424,-1.12115 -2.42237,-3.19892 -2.37704,-3.23203 0.0153,-0.0112 0.4279,-0.0884 0.91685,-0.17164 0.48895,-0.0832 1.5137,-0.3366 2.27721,-0.56308 1.90393,-0.56475 2.19254,-0.61184 3.45455,-0.56373 1.21967,0.0465 1.50504,0.12588 3.01555,0.83883 1.39971,0.66066 2.00423,0.63927 2.41149,-0.0853 l 0.17534,-0.31199 -1.03157,-0.45679 c -2.9805,-1.31982 -3.84339,-1.37621 -7.33923,-0.47958 -1.91664,0.49159 -3.04314,0.70016 -4.01749,0.74381 l -0.58848,0.0264 -0.60589,-0.97367 c -1.38055,-2.21856 -2.59536,-4.49375 -3.63122,-6.80084 -0.35178,-0.78348 -0.63959,-1.4355 -0.63959,-1.44892 0,-0.0389 1.41396,-0.52571 2.20133,-0.75791 2.18192,-0.64345 4.13878,-0.63287 5.67267,0.0307 0.30268,0.13094 0.94412,0.41501 1.42541,0.63127 1.76315,0.79225 3.40024,1.02854 6.61305,0.9545 2.24255,-0.0517 2.88136,-0.1472 3.53119,-0.52802 0.305,-0.17874 0.78606,-0.75791 0.69551,-0.83735 -0.017,-0.0149 -0.41183,0.0318 -0.87749,0.1037 -0.5991,0.0925 -1.52748,0.13265 -3.175,0.13733 -3.22583,0.009 -4.06661,-0.1354 -6.32823,-1.08791 -1.97895,-0.83346 -2.38286,-0.92685 -4.00111,-0.92505 -1.33847,0.002 -1.44665,0.0147 -2.58233,0.31483 -0.65193,0.1723 -1.69914,0.51894 -2.32714,0.77031 -0.62799,0.25136 -1.14729,0.45013 -1.15401,0.44172 -0.007,-0.008 -0.22278,-0.58681 -0.48014,-1.28531 -1.88022,-5.10309 -2.98189,-10.30505 -3.35895,-15.86058 -0.11327,-1.6688 -0.11327,-5.55673 0,-7.22552 1.27496,-18.78479 11.55225,-35.40123 27.77497,-44.9069 0.89983,-0.52725 3.47117,-1.89934 3.55942,-1.89934 0.0217,0 -0.0292,0.52226 -0.11309,1.16058 -0.29059,2.21175 -0.4163,3.71663 -0.46569,5.57488 -0.11,4.13816 0.51904,7.01457 1.86967,8.54945 l 0.36781,0.41799 0.47053,-0.31242 c 0.25879,-0.17182 0.49542,-0.39085 0.52585,-0.48673 0.0646,-0.2037 -0.15855,-0.60236 -0.54339,-0.97053 -0.34905,-0.33394 -0.54133,-0.88461 -0.98116,-2.80997 -0.53325,-2.33436 -0.57891,-2.78894 -0.52195,-5.19659 0.0488,-2.06466 0.14662,-3.12783 0.49346,-5.36574 l 0.18207,-1.17474 0.60121,-0.27332 c 2.08404,-0.94747 5.3863,-2.13026 7.81124,-2.7978 5.56328,-1.53147 10.9719,-2.16149 16.9623,-1.97585 11.988072,0.37151 23.661252,4.68282 33.039292,12.20254 3.24675,2.6034 6.42599,5.79389 9.00503,9.03691 10.67112,13.41844 14.59039,31.19053 10.57741,47.96373 -1.08653,4.54139 -2.90666,9.32322 -5.08092,13.34853 -0.60469,1.11949 -1.59194,2.83376 -1.68632,2.92814 -0.0137,0.0137 -0.28772,-0.0372 -0.60889,-0.11316 -0.93892,-0.22205 -2.1698,-0.17206 -4.26695,0.1733 -1.2345,0.20329 -2.09606,0.29983 -2.67707,0.29995 -1.89215,0 -3.45078,-0.49268 -5.38101,-1.70239 -0.665,-0.41676 -0.66552,-0.41691 -0.93915,-0.27906 -0.32019,0.16132 -0.82458,0.62061 -0.82301,0.74942 0.002,0.12147 1.1241,0.84305 1.97947,1.27234 1.48697,0.74627 3.14921,1.11528 4.64092,1.03025 0.452,-0.0258 1.49975,-0.1699 2.32833,-0.32032 1.85219,-0.33625 3.33525,-0.37986 4.32169,-0.1271 0.33761,0.0865 0.61383,0.19275 0.61383,0.23609 0,0.10977 -0.90436,1.45027 -1.76238,2.61229 -1.12188,1.51938 -2.52938,3.24172 -3.55294,4.3477 l -0.38008,0.4107 -0.8988,-0.15535 c -0.64414,-0.11133 -1.30661,-0.15401 -2.33813,-0.15065 -1.58027,0.005 -2.28754,0.10507 -4.14768,0.58595 -0.60591,0.15664 -1.61644,0.41785 -2.24564,0.58046 -2.33551,0.60359 -4.14777,0.7805 -6.58071,0.64238 -1.52145,-0.0864 -3.57242,-0.33121 -4.61889,-0.55138 -1.6709,-0.35157 -2.24606,-0.31218 -2.68136,0.18361 -0.14156,0.16123 -0.25739,0.34434 -0.25739,0.40693 0,0.14156 2.08049,0.559 4.1235,0.82735 1.1789,0.15486 1.84941,0.1876 3.91984,0.19139 3.16658,0.006 3.75348,-0.0766 6.61912,-0.92943 2.72064,-0.80967 5.01041,-1.05922 7.01101,-0.76408 0.53485,0.0789 0.99011,0.16111 1.01168,0.18269 0.0625,0.0625 -1.53869,1.65039 -2.83081,2.80722 -7.40122,6.6263 -16.32949,11.12984 -26.034992,13.13242 -2.74861,0.56713 -6.16044,0.98973 -8.636,1.06967 -0.76835,0.0248 -1.75895,0.0572 -2.20134,0.072 -0.44238,0.0148 -1.60443,-10e-4 -2.58233,-0.035 z m -23.28189,-15.66225 c 0.14049,-0.0849 0.34735,-0.25223 0.45968,-0.3718 0.20272,-0.21579 0.20347,-0.22319 0.10046,-0.99689 -0.0571,-0.42872 -0.19969,-1.06669 -0.31691,-1.41772 -0.21604,-0.64692 -0.8235,-1.81347 -1.17181,-2.2503 l -0.19067,-0.23911 -0.39423,0.23104 c -0.21682,0.12706 -0.45434,0.32277 -0.52781,0.4349 -0.12815,0.19559 -0.10932,0.25305 0.46365,1.41423 0.63048,1.27773 0.80908,1.83883 0.90477,2.84236 0.0652,0.68355 0.098,0.70077 0.67287,0.35329 z m -9.5837,0.0947 c 0.48129,-0.18299 0.8002,-0.58273 1.0376,-1.30061 0.85614,-2.58887 2.11278,-4.58637 3.06389,-4.87023 0.46965,-0.14016 0.96825,-0.57323 0.9339,-0.81117 -0.0341,-0.23601 -0.27609,-0.20638 -0.95299,0.11668 -1.70626,0.81431 -2.9453,2.46516 -4.01259,5.34619 -0.54325,1.46644 -0.57689,1.59813 -0.40825,1.59813 0.0719,0 0.22416,-0.0356 0.33844,-0.079 z m 43.93938,-1.36246 c 2.2196,-0.21048 4.488732,-0.73672 8.979412,-2.08241 6.02878,-1.80658 8.14469,-2.23384 11.05926,-2.23313 2.21856,8.5e-4 3.81989,0.3534 5.217,1.14958 0.62671,0.35714 0.65025,0.36333 0.86868,0.22834 0.33159,-0.20492 0.77485,-0.63456 0.77485,-0.75104 0,-0.12934 -0.65894,-0.55352 -1.30088,-0.83741 -1.39276,-0.61595 -2.94885,-0.88982 -5.04912,-0.88865 -2.76819,0.002 -5.18211,0.48018 -9.81288,1.94573 -5.41018,1.7122 -7.259682,2.15277 -10.002112,2.38254 -2.68284,0.22478 -5.14722,-0.35472 -6.09697,-1.4337 -0.38722,-0.4399 -0.47089,-0.77424 -0.343,-1.37057 0.20558,-0.95859 0.0481,-1.40649 -0.65027,-1.84953 -1.09559,-0.69504 -2.47657,-0.82138 -5.3433,-0.48884 -2.94634,0.34177 -4.09815,0.28212 -5.44007,-0.28169 -1.31751,-0.55356 -2.89355,-1.82783 -4.37193,-3.53486 -0.98602,-1.13852 -1.81154,-1.31683 -4.4638,-0.96423 -2.08342,0.27699 -4.3309,0.49809 -6.03208,0.59343 -1.41717,0.0794 -1.57216,0.10388 -1.87656,0.29604 -0.37189,0.23477 -0.60036,0.51788 -0.60036,0.74395 0,0.1345 0.0627,0.14618 0.5715,0.10638 0.31433,-0.0246 1.46685,-0.10219 2.56117,-0.17243 1.91023,-0.12264 3.77354,-0.31038 5.83367,-0.5878 1.64049,-0.22092 2.09673,-0.0639 2.9562,1.01766 1.20591,1.51749 2.59541,2.73196 3.77062,3.29568 1.63835,0.78587 3.2382,0.96594 5.72751,0.64464 3.37235,-0.43527 5.20478,-0.26449 5.92156,0.5519 0.28964,0.32987 0.31665,0.55079 0.16002,1.30908 -0.15043,0.72833 0.005,1.18538 0.60308,1.77413 1.21955,1.20037 3.48756,1.71137 6.3788,1.43721 z m 31.926702,-2.6944 c 0.1341,-0.14119 0.22382,-0.30661 0.19937,-0.36759 -0.10714,-0.26723 -1.54837,-1.90237 -2.6401,-2.99532 -2.74802,-2.75108 -5.83716,-4.95065 -9.95939,-7.09143 -4.1293,-2.14444 -8.69428,-3.79786 -13.01043,-4.71229 -0.66332,-0.14053 -1.30483,-0.25552 -1.42558,-0.25552 -0.23832,0 -0.31497,0.0404 -3.506692,1.84967 -4.96741,2.81578 -7.85919,4.09173 -11.21834,4.94992 -4.01434,1.02558 -6.60397,1.06515 -8.4838,0.12964 -0.50161,-0.24964 -0.75366,-0.33075 -0.90763,-0.29211 -0.22259,0.0559 -0.89557,0.64391 -0.89557,0.78255 0,0.12832 0.83852,0.59095 1.48166,0.81749 2.23785,0.78824 5.72086,0.52441 9.47963,-0.71804 1.66527,-0.55045 3.86142,-1.46421 5.84505,-2.43199 1.80767,-0.88193 4.83566,-2.54106 5.96435,-3.26805 0.856819,-0.55188 1.234944,-0.71841 1.631102,-0.71839 0.88742,5e-5 7.06581,1.86244 9.6342,2.9041 6.71956,2.72525 12.20469,6.47311 16.17134,11.04951 l 0.80433,0.92797 0.29633,-0.15172 c 0.16299,-0.0834 0.40606,-0.26722 0.54017,-0.4084 z m -69.501012,-2.67212 c 0.2322,-0.15215 0.41863,-0.47222 0.49763,-0.85436 0.0863,-0.41749 0.72743,-5.61671 0.78564,-6.37117 0.0481,-0.62328 0.0383,-0.6985 -0.0907,-0.6985 -0.0795,0 0.19149,-0.17178 0.60228,-0.38175 1.0782,-0.55109 1.86256,-1.17291 2.16648,-1.71754 0.13759,-0.24657 0.2277,-0.47076 0.20023,-0.49823 -0.10907,-0.10907 -0.60406,0.19506 -1.20316,0.73922 -0.87114,0.79125 -2.20457,1.34699 -3.23755,1.3493 -0.36981,8.4e-4 -0.48661,-0.0373 -0.66676,-0.21741 -0.21394,-0.21394 -0.21753,-0.23696 -0.17485,-1.12183 0.0391,-0.81015 0.37651,-2.47391 0.53346,-2.63029 0.13979,-0.13928 1.80734,-0.0426 2.59297,0.15037 l 0.82047,0.20149 0.37442,-0.21943 c 0.39059,-0.2289 0.66378,-0.67095 0.5098,-0.82494 -0.10535,-0.10535 -1.36626,-0.39777 -1.99908,-0.46361 l -0.48991,-0.051 0.25352,-0.28874 c 0.28225,-0.32147 0.39075,-0.66206 0.4703,-1.4763 0.11496,-1.17684 0.78384,-6.83574 2.04152,-17.27201 0.72112,-5.98382 1.36636,-11.52737 1.43386,-12.319 0.16764,-1.96595 0.18979,-2.12529 0.47663,-3.429 0.27176,-1.23521 0.38398,-2.32962 0.29015,-2.82977 -0.0565,-0.30116 -0.0702,-0.31183 -0.32921,-0.25708 -0.14865,0.0314 -0.36091,0.13874 -0.47169,0.23849 -0.36065,0.32475 -0.45566,0.69738 -0.5241,2.05562 -0.0756,1.49952 -0.18999,1.85885 -0.54859,1.72251 -0.68665,-0.26106 -1.25949,-0.92796 -1.35729,-1.58015 -0.15653,-1.04377 0.14859,-1.92226 1.2247,-3.52617 0.3313,-0.4938 0.60236,-0.91813 0.60236,-0.94296 0,-0.0248 -0.10066,-0.0452 -0.2237,-0.0452 -0.512,0 -1.89942,1.56616 -2.46335,2.78068 -0.70857,1.52603 -0.65503,2.71793 0.16225,3.61216 0.48233,0.52774 1.11003,0.83339 1.6993,0.82745 0.24499,-0.002 0.40276,0.0335 0.40368,0.092 0.002,0.13131 -3.83306,32.68704 -3.85391,32.71518 -0.009,0.0124 -0.24148,0.081 -0.51629,0.15257 -1.37137,0.3571 -1.98765,1.15272 -2.27758,2.94038 -0.34682,2.13839 -0.0375,2.92975 1.1753,3.00697 0.48095,0.0306 0.97152,-0.0578 1.63666,-0.29489 0.10753,-0.0383 0.0835,0.019 -0.0832,0.19832 -0.30607,0.32926 -0.37647,0.59543 -0.53368,2.01752 -0.0721,0.65194 -0.2618,2.15689 -0.42162,3.34434 -0.15983,1.18745 -0.29088,2.22166 -0.29123,2.29825 -5.1e-4,0.11565 0.0499,0.12785 0.29761,0.072 0.16404,-0.037 0.39184,-0.12859 0.50624,-0.20354 z m 19.89651,-7.70307 c 4.90805,-0.73233 8.91035,-2.85587 12.49238,-6.62818 l 0.7237,-0.76215 1.26597,0.3279 c 2.1473,0.55619 3.83718,1.08521 5.11829,1.60227 l 1.22767,0.49549 0.37285,-0.23164 c 0.381574,-0.23706 0.755922,-0.65508 0.666644,-0.74438 -0.11005,-0.11004 -1.677744,-0.74591 -2.723004,-1.10448 -1.44897,-0.49704 -4.36988,-1.29668 -4.96282,-1.35863 -0.53511,-0.0559 -1.06657,0.064 -1.38161,0.31187 -0.12011,0.0945 -0.51904,0.56107 -0.88651,1.03688 -2.49402,3.22929 -6.37489,5.30412 -11.19389,5.98459 -0.65406,0.0924 -2.82061,0.25336 -3.43934,0.25558 -0.34564,10e-4 -0.34956,-0.002 -0.40506,-0.35858 -0.10217,-0.65597 -0.64528,-2.76718 -1.03362,-4.01796 -0.42656,-1.37388 -1.14484,-3.35253 -2.06119,-5.67802 l -0.60952,-1.54683 -0.34168,0.19204 c -0.18792,0.10562 -0.44754,0.3126 -0.57692,0.45997 l -0.23525,0.26794 0.27902,0.70585 c 0.44254,1.11947 0.44253,1.11942 0.1568,1.05874 -1.86159,-0.39534 -2.75192,-0.19425 -3.02974,0.68427 -0.0586,0.1852 -0.0437,0.1905 0.5348,0.1905 0.34607,0 1.06583,0.10394 1.72021,0.24841 0.61884,0.13662 1.21463,0.26045 1.32399,0.27516 0.17775,0.0239 0.2747,0.23778 0.91418,2.01643 0.39344,1.09432 0.84298,2.42782 0.99897,2.96334 0.31282,1.07394 0.72435,2.84353 0.72435,3.11477 0,0.4769 -0.0342,0.46907 1.81275,0.41499 0.9355,-0.0274 2.08192,-0.10666 2.54758,-0.17614 z m -14.81666,-1.55564 c 1.52468,-0.76387 2.60626,-2.07564 3.29752,-3.99932 0.69443,-1.9325 0.98371,-3.86807 1.32044,-8.83488 0.12597,-1.8582 0.15557,-2.72379 0.0952,-2.78417 -0.10311,-0.10311 -0.71581,0.22885 -0.99824,0.54082 -0.16154,0.17843 -0.18546,0.33585 -0.23601,1.55322 -0.13725,3.30512 -0.81109,8.11233 -1.4158,10.10039 -0.24051,0.79071 -0.68531,1.69416 -1.01931,2.07035 -0.15499,0.17456 -0.54701,0.46036 -0.87116,0.6351 -0.53011,0.28577 -0.97697,0.72978 -0.97697,0.97074 0,0.0999 0.27131,0.0148 0.80433,-0.25225 z m 57.491192,-0.6544 c 0.5574,-0.0695 1.96597,-0.29515 3.13014,-0.5014 1.16416,-0.20624 2.59291,-0.42101 3.175,-0.47724 1.77089,-0.17111 3.3949,0.004 4.48272,0.48377 l 0.46107,0.20329 0.43615,-0.30039 c 0.23987,-0.16521 0.47803,-0.3923 0.52921,-0.50466 0.0896,-0.19653 0.07,-0.21386 -0.51621,-0.45715 -1.71931,-0.71362 -3.51416,-0.74579 -7.08628,-0.12704 -3.36574,0.58301 -4.29294,0.69898 -5.61947,0.70287 -2.08877,0.006 -3.75041,-0.33335 -6.41068,-1.30974 -0.71767,-0.26341 -1.52008,-0.5581 -1.78314,-0.65488 -0.42686,-0.15704 -0.50841,-0.16349 -0.75837,-0.0599 -0.34436,0.14263 -0.96592,0.74897 -0.8673,0.84605 0.10188,0.1003 3.39119,1.28444 4.3053,1.54989 2.40389,0.6981 4.34258,0.87841 6.52186,0.60658 z m -69.090532,-4.94868 c 2.46613,-1.34704 3.65983,-1.72697 5.29986,-1.68682 0.75416,0.0185 0.84135,0.003 1.21391,-0.21534 0.46532,-0.2727 0.73203,-0.72703 0.48565,-0.82729 -0.25468,-0.10364 -1.50114,-0.0721 -2.23964,0.0567 -1.40622,0.24522 -3.42825,1.06802 -4.71744,1.91961 -0.59891,0.39562 -2.01067,1.7301 -1.73567,1.64066 0.0931,-0.0303 0.85513,-0.42968 1.69333,-0.88752 z m 38.92345,-1.40997 c 0.48317,-0.31136 0.59545,-0.53217 0.49634,-0.9761 -0.26235,-1.17513 -0.39369,-2.55732 -0.55813,-5.87384 -0.1439,-2.90237 -0.26759,-4.36446 -0.37868,-4.47636 -0.15101,-0.15212 -0.71556,0.23128 -0.91887,0.62402 -0.22265,0.4301 -0.22462,0.037 0.0239,4.78368 0.17143,3.27343 0.29677,4.56204 0.56575,5.81629 0.0789,0.36774 0.10874,0.4073 0.27141,0.3594 0.10054,-0.0296 0.32474,-0.1453 0.49823,-0.25709 z m -20.73707,-4.74275 c 0.14903,-0.0751 0.39478,-0.25398 0.54612,-0.3976 l 0.27517,-0.26113 v -1.03277 c 0,-2.54928 -0.45929,-4.79604 -1.27922,-6.25769 -0.30831,-0.54961 -0.96489,-1.35674 -1.36552,-1.67862 l -0.31641,-0.25422 -0.30122,0.16208 c -0.16568,0.0891 -0.41951,0.28408 -0.56407,0.43317 l -0.26285,0.27107 0.63968,0.67998 c 1.44136,1.53218 2.0994,3.67708 2.12507,6.92679 0.0133,1.68534 0.004,1.66023 0.50325,1.40894 z m 17.63878,-7.23901 c 0.7415,-0.22889 1.79973,-0.75972 2.17986,-1.09348 0.25721,-0.22583 0.4764,-0.70284 0.37128,-0.80796 -0.0199,-0.0199 -0.33784,0.13592 -0.70656,0.34624 -1.01628,0.5797 -1.50044,0.74056 -2.23673,0.74317 -1.24786,0.004 -1.91727,-0.51696 -2.91299,-2.26882 -0.62264,-1.09546 -2.42947,-3.85302 -2.63802,-4.0261 -0.15279,-0.1268 -0.33528,-0.0452 -0.83128,0.37156 -0.2577,0.21654 -0.3163,0.31489 -0.2716,0.45574 0.0313,0.0988 0.49002,0.85356 1.01924,1.67727 0.52924,0.82371 1.16581,1.87844 1.41461,2.34385 0.79943,1.49541 1.47385,2.15396 2.46305,2.40507 0.56442,0.14328 1.39331,0.0868 2.14914,-0.14654 z m -24.62701,-0.22172 c 0.35287,-0.16317 0.64104,-0.50786 0.9675,-1.15725 0.63505,-1.26323 1.46069,-2.21372 2.31235,-2.66202 0.37054,-0.19504 0.5331,-0.22467 1.30345,-0.23754 0.84033,-0.014 0.89727,-0.0268 1.25979,-0.28232 0.20882,-0.14719 0.40655,-0.23635 0.4394,-0.19814 0.0328,0.0382 0.29983,0.38437 0.59329,0.76926 0.63028,0.82665 1.15849,1.24031 1.79571,1.40628 0.91147,0.23741 1.87808,-0.16115 2.95169,-1.21707 0.8246,-0.81101 1.31435,-1.6294 2.42981,-4.06032 0.47984,-1.04573 0.94648,-2.0268 1.03697,-2.18017 0.0905,-0.15336 0.12618,-0.27884 0.0793,-0.27884 -0.21261,0 -0.75137,0.35872 -1.10244,0.73406 -0.49008,0.52393 -0.7263,0.93218 -1.25499,2.16894 -1.49819,3.50471 -2.26518,4.27211 -3.59621,3.59815 -0.78798,-0.399 -1.54805,-1.31658 -2.5971,-3.13527 -0.38288,-0.66379 -0.7093,-1.22236 -0.72539,-1.2413 -0.0665,-0.0782 -0.71242,0.2846 -0.95812,0.53809 -0.3181,0.3282 -0.30093,0.39957 0.35212,1.46448 0.23683,0.38619 0.41114,0.72162 0.38736,0.7454 -0.0238,0.0238 -0.2635,0.0791 -0.53272,0.1229 -2.39082,0.38911 -4.01505,1.75667 -5.41331,4.55783 -0.43217,0.86577 -0.43036,0.86941 0.27151,0.54485 z m 12.19592,-0.0533 c 0.77973,-0.26459 1.55094,-0.76467 2.25615,-1.46298 0.73693,-0.72971 1.22467,-1.43149 1.87442,-2.697 0.43062,-0.83872 0.54236,-1.1351 0.54236,-1.43858 0,-0.43506 -0.12833,-0.49192 -0.52295,-0.23166 -0.36539,0.24098 -0.54203,0.52387 -0.91305,1.4622 -0.65568,1.65825 -1.52027,2.82087 -2.42803,3.265 -1.02346,0.50073 -2.523,0.33119 -4.13697,-0.46772 l -0.84666,-0.4191 -0.40575,0.25931 c -0.22315,0.14263 -0.45901,0.36232 -0.52411,0.48822 l -0.11837,0.22891 0.60878,0.34222 c 1.67259,0.94021 3.17667,1.159 4.61418,0.67118 z m 13.36693,-2.17617 c 0.64156,-0.24241 0.88668,-0.77053 1.03884,-2.23829 0.0659,-0.6355 0.42717,-4.78813 0.42717,-4.90988 0,-0.0109 -0.54293,-0.0405 -1.2065,-0.0658 -2.22184,-0.0847 -3.93482,-0.72461 -6.0937,-2.27622 -0.44859,-0.3224 -0.50283,-0.34065 -0.73111,-0.24611 -0.13561,0.0562 -0.39382,0.23703 -0.5738,0.40189 l -0.32723,0.29976 0.381,0.33904 c 1.65435,1.47221 3.82603,2.36424 6.31226,2.59279 0.44282,0.0407 0.8311,0.1 0.86285,0.13173 0.0318,0.0317 -0.0656,1.3418 -0.21637,2.91125 -0.15075,1.56944 -0.27318,2.92021 -0.27207,3.0017 0.002,0.17188 0.071,0.1819 0.39866,0.0581 z m -21.11641,-5.9313 c 1.29835,-0.65067 2.18442,-1.49982 3.40524,-3.26332 1.20244,-1.73695 1.45028,-2.03715 1.7686,-2.1422 0.29298,-0.0967 0.82632,-0.55663 0.98133,-0.84626 0.0768,-0.14353 0.0565,-0.15942 -0.18884,-0.14777 -0.1512,0.007 -0.35814,-0.0163 -0.45985,-0.0523 -0.14929,-0.0528 -0.28803,0.0221 -0.71967,0.38844 -0.69905,0.59326 -1.33572,1.3556 -2.37064,2.83859 -1.14749,1.64431 -1.63618,2.22468 -2.56339,3.04431 -0.27656,0.24448 -0.47509,0.4445 -0.44119,0.4445 0.0339,0 0.29869,-0.11879 0.58841,-0.26398 z m -1.08192,-1.50392 c 0.62063,-0.28499 0.68032,-0.41554 0.65549,-1.43353 -0.0305,-1.25158 0.22394,-2.15154 0.80649,-2.85223 0.32279,-0.38824 0.92526,-0.78473 1.40644,-0.92559 0.54272,-0.15888 1.06858,-0.57893 1.06858,-0.85358 0,-0.11028 -0.0311,-0.2197 -0.069,-0.24317 -0.0894,-0.0552 -1.2514,0.4503 -1.86378,0.81085 -0.26172,0.15408 -0.7672,0.56822 -1.1233,0.9203 -1.03025,1.01863 -1.51589,2.25876 -1.51589,3.87095 0,0.95989 0.024,0.98657 0.635,0.706 z m 23.01682,-0.61207 c 0.21864,-0.14481 0.43312,-0.32981 0.47662,-0.4111 0.0487,-0.091 0.0503,-0.89289 0.004,-2.08619 -0.10504,-2.71809 -0.32826,-3.37276 -1.33252,-3.90803 -1.45622,-0.77628 -5.49252,-2.12646 -11.83555,-3.95917 -4.22488,-1.2207 -6.58629,-1.98253 -8.50797,-2.74481 -0.70866,-0.2811 -0.92573,-0.33502 -1.07495,-0.26703 -0.27152,0.1237 -0.87345,0.68641 -0.87345,0.81651 0,0.26219 4.39695,1.75646 10.20233,3.46719 5.51236,1.62438 8.03454,2.44415 9.94553,3.23256 1.90452,0.78574 2.07378,1.10297 2.20554,4.13371 0.0425,0.9779 0.0786,1.82563 0.0803,1.88383 0.005,0.18133 0.29606,0.11681 0.71014,-0.15747 z m -12.03122,-2.02069 0.3176,-0.33433 -0.39736,-0.65934 c -0.46177,-0.76618 -0.9029,-1.37568 -1.31978,-1.8235 -0.16256,-0.17462 -0.2861,-0.3175 -0.27454,-0.3175 0.0116,0 0.73493,0.32274 1.60747,0.71719 1.83008,0.82733 2.81713,1.37214 3.32429,1.83488 0.19687,0.17963 0.44152,0.3266 0.54368,0.3266 0.17813,0 0.91871,-0.67685 0.91871,-0.83966 0,-0.14547 -0.93294,-0.92466 -1.45754,-1.21733 -0.29267,-0.16328 -1.54178,-0.75465 -2.7758,-1.31416 -1.23401,-0.55952 -2.91041,-1.36135 -3.72533,-1.78187 -1.67672,-0.86522 -2.90531,-1.31067 -4.11978,-1.49373 -1.10964,-0.16725 -2.31283,-0.16508 -2.71977,0.005 -0.42048,0.17564 -0.78045,0.53234 -0.78045,0.77335 0,0.19502 0.005,0.19583 1.14657,0.19583 1.77368,0 2.82326,0.26717 4.82243,1.22754 l 1.10067,0.52875 -0.61169,0.007 c -0.75712,0.008 -1.1946,0.13466 -1.58665,0.45782 -0.28055,0.23126 -0.6079,0.71606 -0.53364,0.79032 0.0177,0.0177 0.18242,-0.009 0.36607,-0.0603 0.18698,-0.0518 0.67079,-0.075 1.09949,-0.0528 0.638,0.0331 0.86096,0.0853 1.33792,0.3129 0.92037,0.43926 1.83102,1.45848 2.59203,2.90109 l 0.2082,0.39467 0.2998,-0.1219 c 0.16489,-0.067 0.44272,-0.27235 0.6174,-0.45623 z m -13.16156,-13.49878 c 0.12574,-0.0657 0.33464,-0.23099 0.4642,-0.36732 0.22938,-0.24137 0.241,-0.30122 0.44207,-2.27635 0.33132,-3.25459 0.77315,-7.0245 1.40274,-11.96872 1.77075,-13.90604 2.13278,-17.04835 1.96873,-17.08804 -0.14646,-0.0354 -0.59882,0.24489 -0.88877,0.55077 -0.22247,0.23469 -0.23729,0.32552 -0.86794,5.31877 -0.35288,2.794 -0.92461,7.30885 -1.27052,10.033 -0.6652,5.23866 -1.17588,9.55957 -1.526,12.91167 -0.11673,1.1176 -0.23577,2.25107 -0.26454,2.51883 -0.0492,0.45779 -0.0414,0.48683 0.12955,0.48683 0.10002,0 0.28473,-0.0538 0.41048,-0.11944 z m 4.12329,-17.22851 c 0.88238,-0.50796 1.66277,-1.52917 2.16624,-2.8347 0.53606,-1.39005 1.19644,-4.42059 1.71807,-7.88435 0.44437,-2.95072 0.42642,-2.75189 0.24838,-2.75027 -0.0843,7.6e-4 -0.30575,0.0865 -0.49202,0.1905 -0.55349,0.30906 -0.67274,0.66307 -1.01914,3.02544 -0.80787,5.50966 -1.61306,8.2696 -2.93319,10.05417 -0.37259,0.50367 -0.29896,0.55073 0.31166,0.19921 z m 70.343122,90.30313 c -3.08157,-2.80215 -5.6057,-5.12652 -5.60916,-5.16526 -0.01,-0.10731 3.13979,-3.53544 3.741,-4.07212 1.53254,-1.36801 3.41586,-1.67991 5.00937,-0.8296 0.56634,0.3022 1.41285,1.14585 1.67819,1.67253 0.22388,0.44435 0.40248,1.14425 0.40248,1.57718 0,0.21211 0.0268,0.24846 0.14817,0.20115 0.57323,-0.2234 1.22246,-0.31675 1.94166,-0.27918 0.66631,0.0348 0.86608,0.083 1.397,0.3373 2.2675,1.08594 3.03211,3.64047 1.81377,6.05976 -0.16078,0.31927 -0.43543,0.76819 -0.61034,0.99761 -0.52024,0.68241 -4.11906,4.60867 -4.21802,4.6018 -0.0502,-0.003 -2.61254,-2.29901 -5.69412,-5.10117 z m 6.46621,-0.0423 c 0.41063,-0.45751 0.89873,-1.05269 1.08464,-1.32263 0.31187,-0.45281 0.33803,-0.53475 0.33803,-1.0586 0,-0.49452 -0.0313,-0.60883 -0.24264,-0.88591 -0.13345,-0.17496 -0.36205,-0.39093 -0.508,-0.47992 -0.34208,-0.20858 -1.00039,-0.20942 -1.45743,-0.002 -0.38776,0.1761 -1.21917,0.92525 -1.98287,1.78667 l -0.50927,0.57443 1.20711,1.10616 c 0.6639,0.60838 1.23336,1.1078 1.26545,1.10982 0.0321,0.002 0.39434,-0.37066 0.80498,-0.82818 z m -4.97281,-3.95183 c 0.66487,-0.76013 0.93274,-1.27061 0.93368,-1.77933 10e-4,-0.56103 -0.21419,-0.94967 -0.7144,-1.28984 -0.74372,-0.5058 -1.30893,-0.31997 -2.35366,0.77383 -0.36072,0.37767 -0.64544,0.71834 -0.63271,0.75705 0.0346,0.10524 2.21168,2.0828 2.27132,2.06319 0.0283,-0.009 0.25138,-0.2455 0.49577,-0.5249 z M 26.042668,209.29145 c 6.8e-4,-0.23284 0.0171,-0.31804 0.0365,-0.18934 0.0195,0.1287 0.0189,0.3192 -10e-4,0.42333 -0.0201,0.10414 -0.036,-0.001 -0.0354,-0.23399 z M 142.05412,176.67546 c -0.46567,-0.58818 -0.976,-1.23455 -1.13408,-1.43639 l -0.28741,-0.36698 0.32077,-1.07832 c 0.17643,-0.59308 0.50838,-1.59267 0.73765,-2.22132 0.48226,-1.3223 0.71752,-2.24029 0.79595,-3.10585 0.0503,-0.55493 0.0341,-0.65737 -0.16942,-1.0734 -0.12376,-0.25295 -0.27196,-0.49888 -0.32934,-0.5465 -0.0765,-0.0635 -0.73387,0.42049 -2.46683,1.81628 -1.89803,1.52875 -2.38237,1.88113 -2.4635,1.79233 -0.0555,-0.0608 -0.49213,-0.59999 -0.97019,-1.19821 -0.72543,-0.90777 -0.85005,-1.1057 -0.7534,-1.19668 0.0637,-0.0599 2.70365,-2.19177 5.86658,-4.73736 5.52361,-4.44554 5.7567,-4.62234 5.90088,-4.47599 0.0825,0.0838 0.76438,0.91438 1.51515,1.84571 1.83774,2.27969 2.28647,3.19962 2.28385,4.682 -0.002,1.13085 -0.40679,2.05749 -1.26986,2.90697 -1.05557,1.03896 -2.42596,1.50709 -3.67003,1.25369 l -0.61562,-0.12539 -0.13966,0.81844 c -0.0834,0.48846 -0.46179,1.78633 -0.93862,3.21903 -0.43942,1.32033 -0.90735,2.82922 -1.03984,3.35309 -0.13248,0.52388 -0.26011,0.95065 -0.28362,0.94838 -0.0235,-0.002 -0.42374,-0.48536 -0.88941,-1.07353 z m 4.58905,-10.19614 c 0.82682,-0.2082 1.41238,-1.10026 1.21162,-1.84584 -0.086,-0.31924 -0.80851,-1.48887 -1.03681,-1.67833 -0.0813,-0.0675 -0.41713,0.16127 -1.35648,0.92422 -0.68661,0.55767 -1.24838,1.04918 -1.24838,1.09226 0,0.16695 1.16075,1.30067 1.48167,1.44717 0.40291,0.18392 0.44711,0.18674 0.94838,0.0605 z M 26.910748,177.15673 c -0.7453,-0.11714 -1.35889,-0.3104 -2.13463,-0.67234 -0.8541,-0.3985 -1.31664,-0.71309 -2.03106,-1.38139 -0.77396,-0.724 -1.25043,-1.37274 -1.67687,-2.28315 -0.58358,-1.24587 -0.6806,-1.73477 -0.67598,-3.4064 0.004,-1.34667 0.0194,-1.48567 0.24278,-2.159 0.47027,-1.41716 1.11738,-2.49123 2.15805,-3.5819 0.74626,-0.7821 1.70931,-1.55527 2.71134,-2.17675 0.58719,-0.36419 0.73724,-0.42393 0.88569,-0.35266 0.0983,0.0472 0.73709,0.50035 1.41954,1.00701 l 1.24083,0.92119 -1.07149,0.51423 c -3.37225,1.6184 -5.07561,4.24485 -4.45641,6.87139 0.2064,0.8755 0.52774,1.43706 1.2238,2.13868 1.03677,1.04505 2.08591,1.51681 3.37318,1.51681 2.00968,0 3.70254,-1.24324 4.7571,-3.4936 0.42438,-0.90561 0.6532,-1.85011 0.77644,-3.20493 l 0.0972,-1.06818 1.38418,1.01395 c 0.7613,0.55768 1.39998,1.03954 1.4193,1.0708 0.0658,0.10641 -0.19926,1.4095 -0.42432,2.08633 -0.66271,1.99295 -2.11099,4.10184 -3.58424,5.21913 -0.70962,0.53817 -1.73384,1.0354 -2.59426,1.25945 -0.77532,0.20189 -2.27554,0.2815 -3.04014,0.16133 z m 6.14162,-13.95252 c -2.72053,-3.05925 -4.95961,-5.60184 -4.97572,-5.65019 -0.025,-0.0749 1.85615,-1.83569 2.14887,-2.01145 0.0641,-0.0385 0.82907,0.75573 2.10364,2.18406 l 2.00291,2.24453 1.0197,-0.90919 c 0.56084,-0.50005 1.67161,-1.49026 2.46837,-2.20046 0.79676,-0.7102 1.44865,-1.32715 1.44865,-1.371 0,-0.0438 -0.86602,-1.05117 -1.92448,-2.23851 -1.05847,-1.18733 -1.93477,-2.19388 -1.94734,-2.23678 -0.0219,-0.0746 2.1247,-2.04723 2.22892,-2.04827 0.0377,-3.4e-4 6.59076,7.31567 9.74669,10.88159 l 0.31445,0.3553 -1.13053,0.996 c -0.62179,0.5478 -1.1513,1.00071 -1.17669,1.00647 -0.0254,0.006 -0.92836,-0.98013 -2.00661,-2.19086 -1.07824,-1.21074 -1.99487,-2.21394 -2.03694,-2.22934 -0.0759,-0.0278 -4.98737,4.30042 -4.98809,4.39578 -1.7e-4,0.0274 0.89497,1.05596 1.98929,2.28575 1.09431,1.22978 1.98694,2.25514 1.9836,2.27856 -0.007,0.0513 -2.1943,1.9834 -2.26957,2.0051 -0.029,0.008 -2.27859,-2.48784 -4.99912,-5.54709 z m 98.386512,1.50175 c -1.87335,-1.68017 -3.39454,-3.08542 -3.38042,-3.12276 0.0552,-0.14595 9.99804,-11.18321 10.05335,-11.15989 0.0324,0.0136 1.54556,1.3583 3.36264,2.98814 l 3.3038,2.96333 -0.5154,0.58875 c -0.28347,0.32381 -0.72495,0.80758 -0.98106,1.07504 l -0.46567,0.4863 -2.15483,-1.94427 c -1.18516,-1.06935 -2.18564,-1.934 -2.22329,-1.92145 -0.0376,0.0125 -0.52677,0.53705 -1.08695,1.16556 -0.95744,1.07422 -1.00922,1.15035 -0.86374,1.26974 0.0851,0.0699 1.04089,0.92274 2.12393,1.89531 1.95974,1.75985 1.96842,1.76917 1.81348,1.94733 -0.0856,0.0985 -0.49486,0.56002 -0.90941,1.02569 -0.41454,0.46567 -0.77567,0.87411 -0.80251,0.90765 -0.0268,0.0335 -0.75286,-0.57012 -1.6134,-1.34148 -0.86053,-0.77136 -1.81895,-1.62889 -2.12981,-1.90562 l -0.5652,-0.50315 -1.04346,1.15657 c -0.57392,0.63611 -1.05471,1.18557 -1.06844,1.22103 -0.0137,0.0354 0.88162,0.87488 1.98966,1.86539 1.10805,0.99052 2.11984,1.90095 2.24842,2.02318 l 0.23377,0.22224 -0.94092,1.05576 c -0.5175,0.58067 -0.94935,1.06492 -0.95968,1.07611 -0.0103,0.0112 -1.5515,-1.35433 -3.42486,-3.0345 z m -5.85243,-4.74549 c -0.58208,-0.421 -1.12885,-0.81574 -1.21505,-0.8772 -0.14513,-0.10348 0.16415,-0.56151 4.18221,-6.19378 2.38641,-3.34513 4.36642,-6.1132 4.40001,-6.15127 0.0612,-0.0693 2.52722,1.62321 2.5348,1.7397 0.006,0.0958 -8.6675,12.19908 -8.76097,12.22505 -0.0455,0.0126 -0.55891,-0.3215 -1.141,-0.7425 z M 44.973418,153.5548 c -2.21763,-3.33851 -4.09682,-6.17234 -4.17599,-6.29738 l -0.14395,-0.22737 1.2838,-0.8586 c 0.70609,-0.47223 1.29497,-0.84617 1.30863,-0.83097 0.027,0.0301 8.18418,12.329 8.27931,12.4831 0.0491,0.0795 -0.7545,0.6589 -2.3081,1.66427 l -0.21166,0.13697 z m 7.09975,2.5523 c -0.22448,-0.0275 -0.36241,-0.10491 -0.46567,-0.2614 -0.23117,-0.35036 -1.9409,-3.61584 -1.91243,-3.65263 0.0141,-0.0182 0.42313,0.14442 0.90904,0.36131 1.24146,0.55414 2.05546,0.75499 2.81959,0.6957 1.44251,-0.11193 2.48223,-0.93265 2.37595,-1.8755 -0.0512,-0.4546 -0.26212,-0.73805 -0.74053,-0.99536 -0.54665,-0.29402 -0.97694,-0.37759 -2.45586,-0.47699 -2.18063,-0.14655 -2.96723,-0.29732 -3.82866,-0.73384 -1.43359,-0.72646 -2.37083,-2.59634 -2.10579,-4.20124 0.25434,-1.54005 1.26477,-2.77223 2.896,-3.53154 0.97028,-0.45165 2.23,-0.67544 3.15295,-0.56012 l 0.46322,0.0579 0.86327,1.65112 c 0.4748,0.90812 0.84692,1.66747 0.82694,1.68744 -0.02,0.02 -0.37013,-0.0605 -0.77812,-0.17873 -1.47424,-0.4274 -2.46812,-0.41501 -3.39712,0.0423 -0.93557,0.46058 -1.36912,1.15692 -1.0885,1.74828 0.29293,0.61731 0.79883,0.7652 3.16567,0.92542 1.00119,0.0678 2.06463,0.18182 2.3632,0.25343 2.50733,0.60142 4.12558,3.08317 3.52184,5.40109 -0.20228,0.77663 -0.53273,1.3292 -1.17681,1.96786 -1.07364,1.06459 -2.47306,1.63173 -4.15789,1.68507 -0.51224,0.0162 -1.07487,0.0119 -1.25029,-0.01 z m 64.750282,-1.50959 c -0.6985,-0.39343 -1.27,-0.74505 -1.27,-0.78136 0,-0.0884 7.14931,-12.90628 7.2736,-13.04067 0.0763,-0.0825 0.60949,0.18069 2.46424,1.21647 1.30177,0.72698 2.58577,1.49376 2.85333,1.70397 1.11309,0.8745 1.75983,2.14156 1.75983,3.44777 0,1.96415 -1.39472,3.88943 -3.19849,4.41521 -0.58016,0.16911 -1.62453,0.16616 -2.29074,-0.006 -0.65039,-0.16853 -1.80762,-0.6708 -2.59643,-1.12691 -0.32597,-0.18848 -0.62362,-0.31338 -0.66144,-0.27755 -0.0378,0.0358 -0.70458,1.20134 -1.48166,2.59001 -0.7771,1.38867 -1.451,2.53611 -1.49757,2.54986 -0.0466,0.0137 -0.65617,-0.2969 -1.35467,-0.69033 z m 9.16868,-6.11172 c 0.38542,-0.28539 0.71822,-0.85707 0.76157,-1.30824 0.0509,-0.52997 -0.0862,-0.84881 -0.53506,-1.24389 -0.4661,-0.41028 -1.9745,-1.24793 -2.06877,-1.14883 -0.0963,0.10127 -1.52678,2.65812 -1.52666,2.72884 0,0.0722 1.51842,0.919 1.9288,1.07576 0.42755,0.16331 1.1498,0.11133 1.44012,-0.10364 z m -16.35694,2.80314 c -1.11298,-0.29488 -2.04956,-0.5666 -2.08128,-0.60382 -0.0317,-0.0372 -1.04027,-1.71549 -2.2412,-3.7295 -1.20095,-2.01401 -2.21026,-3.66183 -2.24293,-3.66183 -0.0327,0 -0.3708,1.17157 -0.75143,2.6035 -0.38063,1.43192 -0.73032,2.74007 -0.77709,2.907 l -0.085,0.3035 -1.460368,-0.38143 c -0.803214,-0.20978 -1.472974,-0.39068 -1.488344,-0.40201 -0.0412,-0.0304 3.801352,-14.46005 3.870172,-14.53325 0.0468,-0.0498 2.86195,0.64231 2.94324,0.7236 0.0121,0.0121 -0.28092,1.1621 -0.65121,2.55551 -0.37029,1.3934 -0.67326,2.58028 -0.67326,2.6375 0,0.0572 1.3932,-0.7889 3.096,-1.88027 1.7028,-1.09138 3.14107,-1.98405 3.19617,-1.98372 0.0551,3.4e-4 0.93586,0.22254 1.95727,0.49381 l 1.8571,0.4932 -0.5871,0.37917 c -0.32291,0.20855 -2.14266,1.38259 -4.04389,2.60899 -2.56466,1.65434 -3.44717,2.26484 -3.41955,2.36552 0.0205,0.0746 1.30131,2.26463 2.8463,4.86664 1.54498,2.60201 2.79803,4.74063 2.78455,4.75249 -0.0135,0.0119 -0.93513,-0.21972 -2.04811,-0.5146 z m -48.748562,-4.37565 c -1.87491,-2.47968 -4.06741,-5.3795 -4.87222,-6.44404 -0.80481,-1.06455 -1.46329,-1.9621 -1.46329,-1.99455 0,-0.0499 2.81343,-0.85757 2.97689,-0.85459 0.0307,5.9e-4 1.30541,1.65814 2.8326,3.68352 1.52719,2.02537 2.80093,3.65415 2.83053,3.6195 0.0296,-0.0346 0.27562,-2.08231 0.54671,-4.55034 0.27109,-2.46804 0.5343,-4.52889 0.58492,-4.57968 0.0506,-0.0508 0.62057,-0.23556 1.26658,-0.4106 1.14068,-0.30906 1.17887,-0.31373 1.32432,-0.16165 0.0824,0.0861 1.36213,1.75551 2.84391,3.70974 2.67276,3.52494 2.69461,3.55082 2.75143,3.25967 0.0315,-0.16142 0.2578,-2.21753 0.50289,-4.56915 0.24508,-2.35162 0.47567,-4.30961 0.51241,-4.35109 0.0587,-0.0662 2.97602,-0.91197 3.00651,-0.87159 0.007,0.009 -0.40057,3.63518 -0.90464,8.05901 -0.50407,4.42384 -0.91827,8.06921 -0.92044,8.10083 -0.004,0.0642 -0.84575,0.32351 -1.0497,0.32351 -0.0735,0 -1.60555,-1.94969 -3.49835,-4.45186 -1.85221,-2.44853 -3.37777,-4.4202 -3.39014,-4.3815 -0.0124,0.0387 -0.30936,2.54438 -0.66,5.56819 -0.35064,3.0238 -0.65194,5.51224 -0.66955,5.52985 -0.0437,0.0437 -0.91369,0.27306 -1.0405,0.27431 -0.0561,6e-4 -1.63596,-2.02782 -3.51087,-4.50749 z m 31.0025,0.95687 c -3.51115,-0.36929 -5.92724,-2.31527 -6.91303,-5.56796 -0.19711,-0.65033 -0.22651,-0.89876 -0.23341,-1.97175 -0.009,-1.39326 0.12542,-2.14006 0.57831,-3.2139 0.74028,-1.75526 2.42109,-3.37729 4.21762,-4.0701 1.18813,-0.45819 1.67632,-0.5419 3.15484,-0.54092 1.18473,7.7e-4 1.4685,0.0293 2.26208,0.22761 1.02594,0.25633 2.10632,0.65537 3.0195,1.11523 l 0.62033,0.3124 -0.049,0.35434 c -0.027,0.19489 -0.0744,0.91323 -0.10538,1.5963 -0.031,0.68308 -0.0835,1.28593 -0.11673,1.33966 -0.0407,0.0659 -0.29928,-0.058 -0.79327,-0.38002 -1.65135,-1.0764 -3.1384,-1.5673 -4.74253,-1.56559 -0.55418,5.9e-4 -1.13299,0.0519 -1.40667,0.12475 -1.64891,0.43878 -3.00511,1.80889 -3.39544,3.43024 -0.17653,0.73328 -0.13409,2.05424 0.0867,2.69973 0.78115,2.28337 3.09077,3.5177 5.89039,3.148 1.02267,-0.13505 2.08599,-0.50182 3.25097,-1.12136 l 0.96495,-0.51318 -0.053,0.70858 c -0.0291,0.38971 -0.0784,1.17745 -0.1094,1.75053 l -0.0564,1.04196 -0.38989,0.19617 c -0.58469,0.29417 -1.65214,0.63142 -2.41808,0.76397 -0.89033,0.15407 -2.46452,0.21934 -3.26348,0.13531 z m -11.68488,-0.19487 c -8.4e-4,-0.10478 -0.26562,-3.46581 -0.58921,-7.46897 -0.38351,-4.74446 -0.55879,-7.29674 -0.50344,-7.33095 0.0919,-0.0568 2.95682,-0.28264 2.98988,-0.23571 0.011,0.0157 0.27606,3.26696 0.58896,7.22513 0.31291,3.95816 0.58869,7.33225 0.61284,7.49797 l 0.0439,0.3013 -1.29586,0.10123 c -1.81753,0.14199 -1.84603,0.1406 -1.84708,-0.09 z"
       style="fill:#140d47;fill-opacity:1;stroke-width:0.08466667" />
  </g>
</svg>
