<?xml version="1.0" encoding="UTF-8" standalone="no"?>
<!-- Created with Inkscape (http://www.inkscape.org/) -->

<svg
   xmlns:dc="http://purl.org/dc/elements/1.1/"
   xmlns:cc="http://creativecommons.org/ns#"
   xmlns:rdf="http://www.w3.org/1999/02/22-rdf-syntax-ns#"
   xmlns:svg="http://www.w3.org/2000/svg"
   xmlns="http://www.w3.org/2000/svg"
   xmlns:xlink="http://www.w3.org/1999/xlink"
   xmlns:sodipodi="http://sodipodi.sourceforge.net/DTD/sodipodi-0.dtd"
   xmlns:inkscape="http://www.inkscape.org/namespaces/inkscape"
   width="41"
   height="41"
   viewBox="0 0 10.847916 10.847917"
   version="1.1"
   id="svg5884"
   inkscape:version="0.92.1 unknown"
   sodipodi:docname="map.svg"
   inkscape:export-filename="/home/sam/Workspace/CPCC/website/cpcc/static/map.png"
   inkscape:export-xdpi="96"
   inkscape:export-ydpi="96">
  <defs
     id="defs5878">
    <rect
       id="b"
       x="37.499"
       y="3.33"
       width="25.001"
       height="93.341" />
    <clipPath
       id="a-6">
      <use
         height="100%"
         width="100%"
         y="0"
         x="0"
         style="overflow:visible"
         xlink:href="#b"
         overflow="visible"
         id="use4499-7" />
    </clipPath>
  </defs>
  <sodipodi:namedview
     id="base"
     pagecolor="#ffffff"
     bordercolor="#666666"
     borderopacity="1.0"
     inkscape:pageopacity="0.0"
     inkscape:pageshadow="2"
     inkscape:zoom="15.839192"
     inkscape:cx="33.996507"
     inkscape:cy="20.943604"
     inkscape:document-units="mm"
     inkscape:current-layer="g4573"
     showgrid="false"
     units="px"
     showguides="true"
     inkscape:guide-bbox="true"
     inkscape:window-width="1920"
     inkscape:window-height="1031"
     inkscape:window-x="1920"
     inkscape:window-y="28"
     inkscape:window-maximized="1" />
  <metadata
     id="metadata5881">
    <rdf:RDF>
      <cc:Work
         rdf:about="">
        <dc:format>image/svg+xml</dc:format>
        <dc:type
           rdf:resource="http://purl.org/dc/dcmitype/StillImage" />
        <dc:title></dc:title>
      </cc:Work>
    </rdf:RDF>
  </metadata>
  <g
     inkscape:label="Layer 1"
     inkscape:groupmode="layer"
     id="layer1"
     transform="translate(0,-286.15207)">
    <g
       id="layer1-2"
       inkscape:label="Layer 1"
       transform="matrix(0.04789808,0,0,0.04789808,-0.12199184,283.97497)">
      <g
         transform="rotate(180,99.787367,151.09665)"
         id="g4573">
        <g
           id="g6452"
           transform="translate(-15.78252,0.98640747)"
           style="fill:#140d47;fill-opacity:1">
          <g
             transform="matrix(0.23925545,-0.11296535,0.11296535,0.23925545,-48.668186,67.237045)"
             id="layer1-3"
             style="fill:#140d47;fill-opacity:1">
            <path
               sodipodi:nodetypes="cccczzzcccccccczzzccccc"
               style="stroke:#000000;stroke-width:0.76999998;fill:#140d47;fill-opacity:1"
               inkscape:connector-curvature="0"
               id="path2987-1-1-7"
               d="M 366.83581,527.22717 270.31905,278.06579 c 0,0 -20.93058,-5.92545 -35.43391,-22.12206 -14.50314,-16.19668 -31.65984,-58.15657 -38.40198,-79.92622 -6.74241,-21.77061 -11.41997,-35.68154 -7.31491,-47.50922 4.10506,-11.82769 11.40318,-15.14225 19.79389,-18.43619 8.39071,-3.29393 15.98602,-5.83607 27.03481,0.0468 11.04878,5.88282 17.06326,19.27815 26.90334,39.83521 9.83999,20.55711 25.7507,63.00405 26.10889,84.7422 0.35827,21.73811 -10.9776,40.30433 -10.9776,40.30433 l 98.41582,248.4174 0.82269,1.75579 96.51677,249.16138 c 0,0 20.93057,5.92545 35.43391,22.12206 14.50314,16.19669 31.65984,58.15657 38.40198,79.92622 6.74241,21.77061 11.42743,35.68677 7.31491,47.50923 -4.11253,11.82245 -11.41342,15.1161 -19.80874,18.39829 -8.39519,3.28248 -16.00279,5.80707 -27.04965,-0.0847 -11.04686,-5.89173 -17.06327,-19.27815 -26.90335,-39.83521 -9.83999,-20.5571 -25.75069,-63.00405 -26.10888,-84.74219 -0.35828,-21.73811 10.9776,-40.30434 10.9776,-40.30434 l -98.41583,-248.4174 z" />
          </g>
          <path
             sodipodi:nodetypes="cscscscsccscscscscc"
             inkscape:connector-curvature="0"
             clip-path="url(#a-6)"
             d="m 43.355918,39.754884 c 0,0 3.934511,-6.798487 3.940794,-10.858481 L 47.33,7.388 c 0,0 0,-4.059 -4.059,-4.059 h -0.856 -0.857 c -4.059,0 -4.059,4.059 -4.059,4.059 l 1.116975,22.843155 c 0.156293,3.196333 1.181746,4.509103 3.558084,9.668942 L 41.886332,93.17573 C 41.834332,93.22373 39.335,95.16 39.335,95.567 v 0.487 c 0,0 0,0.616 0.617,0.616 h 2.414 2.501 c 0.617,0 0.617,-0.616 0.617,-0.616 v -0.487 c 0,-0.407 -2.27773,-2.120668 -2.32873,-2.168668 z"
             id="path4502"
             transform="matrix(1.5004095,1.7070686,-1.7070686,1.5004095,123.95632,-4.6964267)"
             style="fill:#140d47;fill-opacity:1" />
        </g>
        <path
           sodipodi:type="star"
           style="fill:#140d47;fill-opacity:1;stroke:none;stroke-width:0.98463166;stroke-opacity:1"
           id="path6454"
           sodipodi:sides="3"
           sodipodi:cx="-81.108497"
           sodipodi:cy="-71.300092"
           sodipodi:r1="33.084003"
           sodipodi:r2="16.542002"
           sodipodi:arg1="-0.52310127"
           sodipodi:arg2="0.52409628"
           inkscape:flatsided="false"
           inkscape:rounded="0"
           inkscape:randomized="0"
           d="m -52.448684,-87.82784 -14.338137,24.805872 -14.338136,24.805873 -14.313447,-24.820127 -14.313446,-24.820127 28.651582,0.01425 z"
           transform="scale(-1)"
           inkscape:transform-center-x="-0.00039468349"
           inkscape:transform-center-y="0.39582373" />
      </g>
    </g>
  </g>
</svg>
